<svg xmlns="http://www.w3.org/2000/svg" viewBox="0 0 260 320"><path d="M222 2.046V34l9-3 9 3V1.077l12-.646c4.418-.238 8 3.15 8 7.57v304c0 4.418-3.582 7.807-8 7.57L8 306.43c-4.418-.238-8-3.7-8-7.73V21.3c0-4.032 3.582-7.493 8-7.73L222 2.046zM178.48 179.72c0-6.12-2.7-11.88-7.74-17.28-5.22-5.22-13.14-9-23.76-11.52 5.04-2.16 9.36-4.5 12.78-7.2 3.24-2.52 5.76-5.4 7.74-8.28 1.8-2.88 3.24-5.76 3.96-8.82a36.96 36.96 0 0 0 1.08-8.82 35.46 35.46 0 0 0-1.98-11.7c-1.44-3.6-3.42-6.66-6.12-9.36s-6.12-4.86-10.08-6.48c-4.14-1.44-8.82-2.16-14.22-2.16-5.22 0-10.62 1.08-16.2 3.24-5.76 2.16-11.34 4.86-17.1 8.1-.36-3.42-.72-6.12-1.44-8.1-.9-1.8-2.34-2.88-4.32-2.88-1.8 0-3.42.54-5.04 1.26-1.62.9-2.88 1.98-3.6 3.24l.72 7.02-.18 9.9c-1.8 1.62-2.52 2.88-2.52 3.6 0 .36.18.9.54 1.26.36.54.9 1.08 1.98 1.8v14.94c0 3.6-.18 7.38-.18 10.98v10.44c0 6.48-.18 12.96-.54 19.44s-1.08 13.14-1.8 20.34c-3.06.36-5.22 1.08-6.48 2.16-1.44 1.26-1.98 2.52-1.98 3.96 0 1.8.72 3.06 2.16 3.78 1.26.72 2.88 1.44 4.86 2.16v3.42c0 .54.18 1.08.54 1.44.36.72 1.08 1.26 2.16 1.62.9.54 1.8.72 2.88.72.9 0 1.98-.36 3.24-1.08 1.08-.54 1.98-1.62 2.7-3.42 1.62.54 3.78.9 6.3 1.26 2.52.54 5.04.9 7.92 1.26 2.7.36 5.4.72 8.28.9 2.52.36 4.86.36 7.02.36 3.78 0 7.2 0 10.44-.36 3.06 0 5.94-.36 8.82-.9 2.7-.36 5.4-1.08 7.92-2.16 2.52-.9 5.22-2.16 8.1-3.96 3.96-2.16 7.02-5.22 9.54-9.18 2.34-3.78 3.6-8.82 3.6-14.94zm-19.26-62.28c0 9.72-4.5 16.74-13.14 21.24-9 4.68-22.32 7.56-39.96 9l.36-9v-15.84c0-2.52.18-5.4.18-8.46 2.16-1.44 4.5-3.24 7.38-5.04 2.7-1.8 5.58-3.42 8.64-5.04 2.88-1.44 5.94-2.52 9-3.6 2.88-1.08 5.76-1.62 8.64-1.62s5.58.54 8.1 1.62c2.34 1.08 4.32 2.52 5.94 4.32 1.44 1.8 2.7 3.6 3.6 5.76.72 2.16 1.26 4.5 1.26 6.66zm5.4 64.26c0 5.4-2.7 9.72-8.1 13.14-5.4 3.6-14.04 5.22-26.28 5.22-2.88 0-5.76 0-8.28-.36s-5.04-.72-7.2-1.26c-2.16-.18-3.96-.54-5.58-.9l-5.4-1.08c.72-6.66 1.08-12.96 1.26-18.9 0-5.76 0-12.06.36-18.9h9.72c1.8.18 3.78.18 5.58.18h4.68c3.96 0 8.1.36 12.78.9 4.5.72 8.64 1.8 12.6 3.42 3.96 1.8 7.2 4.14 9.9 7.02 2.52 3.06 3.96 6.84 3.96 11.52z" fill="#42b983" fill-rule="evenodd"/></svg>